<svg version="1.1" xmlns="http://www.w3.org/2000/svg" xmlns:xlink="http://www.w3.org/1999/xlink" width="1035.65966796875" height="586"><defs/><g><g transform="translate(-46,-46) scale(1,1)"><rect fill="#C0C0C0" stroke="none" x="63" y="63" width="429.13232421875" height="220" opacity="0.2"/></g><g transform="translate(-46,-46) scale(1,1)"><rect fill="#ffffff" stroke="none" x="56" y="56" width="429.13232421875" height="220"/></g><g transform="translate(-46,-46) scale(1,1)"><path fill="none" stroke="#000000" d="M 56 56 L 485.13232421875 56 L 485.13232421875 276 L 56 276 L 56 56 Z Z" stroke-miterlimit="10"/></g><g transform="translate(-46,-46) scale(1,1)"><path fill="none" stroke="#000000" d="M 56 81 L 485.13232421875 81" stroke-miterlimit="10"/></g><g transform="translate(-46,-46) scale(1,1)"><path fill="none" stroke="#000000" d="M 56 119 L 485.13232421875 119" stroke-miterlimit="10"/></g><g transform="translate(-46,-46) scale(1,1)"><g><path fill="none" stroke="none"/><text fill="#000000" stroke="none" font-family="Arial" font-size="13px" font-style="normal" font-weight="bold" text-decoration="none" x="239.8466796875" y="75.5">Population</text></g></g><g transform="translate(-46,-46) scale(1,1)"><g><path fill="none" stroke="none"/><text fill="#000000" stroke="none" font-family="Arial" font-size="13px" font-style="normal" font-weight="normal" text-decoration="none" x="61" y="98.5">-populationSize: int</text></g></g><g transform="translate(-46,-46) scale(1,1)"><g><path fill="none" stroke="none"/><text fill="#000000" stroke="none" font-family="Arial" font-size="13px" font-style="normal" font-weight="normal" text-decoration="none" x="61" y="113.5">-chromosome: Chromosome[populationSize]</text></g></g><g transform="translate(-46,-46) scale(1,1)"><g><path fill="none" stroke="none"/><text fill="#000000" stroke="none" font-family="Arial" font-size="13px" font-style="normal" font-weight="normal" text-decoration="none" x="61" y="136.5">«constructor»+Population(basisPopulation: Population)</text></g></g><g transform="translate(-46,-46) scale(1,1)"><g><path fill="none" stroke="none"/><text fill="#000000" stroke="none" font-family="Arial" font-size="13px" font-style="normal" font-weight="normal" text-decoration="none" x="61" y="151.5">«constructor»+Population(populationSize: int, board: int[9,9])</text></g></g><g transform="translate(-46,-46) scale(1,1)"><g><path fill="none" stroke="none"/><text fill="#000000" stroke="none" font-family="Arial" font-size="13px" font-style="normal" font-weight="normal" text-decoration="none" x="61" y="166.5">«constructor»+Population(populationSize: int)</text></g></g><g transform="translate(-46,-46) scale(1,1)"><g><path fill="none" stroke="none"/><text fill="#000000" stroke="none" font-family="Arial" font-size="13px" font-style="normal" font-weight="normal" text-decoration="none" x="61" y="181.5">+setChromosome(chromosome: Chromosome, position: int): void</text></g></g><g transform="translate(-46,-46) scale(1,1)"><g><path fill="none" stroke="none"/><text fill="#000000" stroke="none" font-family="Arial" font-size="13px" font-style="normal" font-weight="normal" text-decoration="none" x="61" y="196.5">+setChromosome(chromosome: Chromosome): void</text></g></g><g transform="translate(-46,-46) scale(1,1)"><g><path fill="none" stroke="none"/><text fill="#000000" stroke="none" font-family="Arial" font-size="13px" font-style="normal" font-weight="normal" text-decoration="none" x="61" y="211.5">+getChromosome(position: int): Chromosome</text></g></g><g transform="translate(-46,-46) scale(1,1)"><g><path fill="none" stroke="none"/><text fill="#000000" stroke="none" font-family="Arial" font-size="13px" font-style="normal" font-weight="normal" text-decoration="none" x="61" y="226.5">+sortPopulation(): void</text></g></g><g transform="translate(-46,-46) scale(1,1)"><g><path fill="none" stroke="none"/><text fill="#000000" stroke="none" font-family="Arial" font-size="13px" font-style="normal" font-weight="normal" text-decoration="none" x="61" y="241.5">+getChromosomesQuantity(): int</text></g></g><g transform="translate(-46,-46) scale(1,1)"><g><path fill="none" stroke="none"/><text fill="#000000" stroke="none" font-family="Arial" font-size="13px" font-style="normal" font-weight="normal" text-decoration="none" x="61" y="256.5">+getBestChromosome(): Chromosome</text></g></g><g transform="translate(-46,-46) scale(1,1)"><g><path fill="none" stroke="none"/><text fill="#000000" stroke="none" font-family="Arial" font-size="13px" font-style="normal" font-weight="normal" text-decoration="none" x="61" y="271.5">+getPopulationSize(): int</text></g></g><g transform="translate(-46,-46) scale(1,1)"><rect fill="#C0C0C0" stroke="none" x="703" y="95" width="375.65966796875" height="160" opacity="0.2"/></g><g transform="translate(-46,-46) scale(1,1)"><rect fill="#ffffff" stroke="none" x="696" y="88" width="375.65966796875" height="160"/></g><g transform="translate(-46,-46) scale(1,1)"><path fill="none" stroke="#000000" d="M 696 88 L 1071.65966796875 88 L 1071.65966796875 248 L 696 248 L 696 88 Z Z" stroke-miterlimit="10"/></g><g transform="translate(-46,-46) scale(1,1)"><path fill="none" stroke="#000000" d="M 696 113 L 1071.65966796875 113" stroke-miterlimit="10"/></g><g transform="translate(-46,-46) scale(1,1)"><path fill="none" stroke="#000000" d="M 696 151 L 1071.65966796875 151" stroke-miterlimit="10"/></g><g transform="translate(-46,-46) scale(1,1)"><g><path fill="none" stroke="none"/><text fill="#000000" stroke="none" font-family="Arial" font-size="13px" font-style="normal" font-weight="bold" text-decoration="none" x="844.817138671875" y="107.5">Chromosome</text></g></g><g transform="translate(-46,-46) scale(1,1)"><g><path fill="none" stroke="none"/><text fill="#000000" stroke="none" font-family="Arial" font-size="13px" font-style="normal" font-weight="normal" text-decoration="none" x="701" y="130.5">-genes: int[9,9]</text></g></g><g transform="translate(-46,-46) scale(1,1)"><g><path fill="none" stroke="none"/><text fill="#000000" stroke="none" font-family="Arial" font-size="13px" font-style="normal" font-weight="normal" text-decoration="none" x="701" y="145.5">-fitness: int = 0</text></g></g><g transform="translate(-46,-46) scale(1,1)"><g><path fill="none" stroke="none"/><text fill="#000000" stroke="none" font-family="Arial" font-size="13px" font-style="normal" font-weight="normal" text-decoration="none" x="701" y="168.5">«constructor»+Chromosome(basisChromosome: Chromosome)</text></g></g><g transform="translate(-46,-46) scale(1,1)"><g><path fill="none" stroke="none"/><text fill="#000000" stroke="none" font-family="Arial" font-size="13px" font-style="normal" font-weight="normal" text-decoration="none" x="701" y="183.5">«constructor»+Chromosome(board: int[9,9], isGenes: boolean)</text></g></g><g transform="translate(-46,-46) scale(1,1)"><g><path fill="none" stroke="none"/><text fill="#000000" stroke="none" font-family="Arial" font-size="13px" font-style="normal" font-weight="normal" text-decoration="none" x="701" y="198.5">+fitnessFunction(): void</text></g></g><g transform="translate(-46,-46) scale(1,1)"><g><path fill="none" stroke="none"/><text fill="#000000" stroke="none" font-family="Arial" font-size="13px" font-style="normal" font-weight="normal" text-decoration="none" x="701" y="213.5">+getFitness(): int</text></g></g><g transform="translate(-46,-46) scale(1,1)"><g><path fill="none" stroke="none"/><text fill="#000000" stroke="none" font-family="Arial" font-size="13px" font-style="normal" font-weight="normal" text-decoration="none" x="701" y="228.5">+getGenes(): int[9,9]</text></g></g><g transform="translate(-46,-46) scale(1,1)"><rect fill="#C0C0C0" stroke="none" x="407" y="439" width="529.533203125" height="190" opacity="0.2"/></g><g transform="translate(-46,-46) scale(1,1)"><rect fill="#ffffff" stroke="none" x="400" y="432" width="529.533203125" height="190"/></g><g transform="translate(-46,-46) scale(1,1)"><path fill="none" stroke="#000000" d="M 400 432 L 929.533203125 432 L 929.533203125 622 L 400 622 L 400 432 Z Z" stroke-miterlimit="10"/></g><g transform="translate(-46,-46) scale(1,1)"><path fill="none" stroke="#000000" d="M 400 457 L 929.533203125 457" stroke-miterlimit="10"/></g><g transform="translate(-46,-46) scale(1,1)"><path fill="none" stroke="#000000" d="M 400 495 L 929.533203125 495" stroke-miterlimit="10"/></g><g transform="translate(-46,-46) scale(1,1)"><g><path fill="none" stroke="none"/><text fill="#000000" stroke="none" font-family="Arial" font-size="13px" font-style="normal" font-weight="bold" text-decoration="none" x="637.31298828125" y="451.5">Algorithm</text></g></g><g transform="translate(-46,-46) scale(1,1)"><g><path fill="none" stroke="none"/><text fill="#000000" stroke="none" font-family="Arial" font-size="13px" font-style="normal" font-weight="normal" text-decoration="none" x="405" y="474.5">-crossoverRate: float</text><path fill="none" stroke="#000000" d="M 405 474.5 L 524.9326171875 474.5" stroke-miterlimit="10"/></g></g><g transform="translate(-46,-46) scale(1,1)"><g><path fill="none" stroke="none"/><text fill="#000000" stroke="none" font-family="Arial" font-size="13px" font-style="normal" font-weight="normal" text-decoration="none" x="405" y="489.5">-mutationRate: float</text><path fill="none" stroke="#000000" d="M 405 489.5 L 518.4453125 489.5" stroke-miterlimit="10"/></g></g><g transform="translate(-46,-46) scale(1,1)"><g><path fill="none" stroke="none"/><text fill="#000000" stroke="none" font-family="Arial" font-size="13px" font-style="normal" font-weight="normal" text-decoration="none" x="405" y="512.5">+newGeneration(population: Population, elitism: boolean): Population</text><path fill="none" stroke="#000000" d="M 405 512.5 L 804.29296875 512.5" stroke-miterlimit="10"/></g></g><g transform="translate(-46,-46) scale(1,1)"><g><path fill="none" stroke="none"/><text fill="#000000" stroke="none" font-family="Arial" font-size="13px" font-style="normal" font-weight="normal" text-decoration="none" x="405" y="527.5">+crossover(chromosome1: Chromosome, chromosome2: Chromosome): Chromosome[2]</text><path fill="none" stroke="#000000" d="M 405 527.5 L 919.7568359375 527.5" stroke-miterlimit="10"/></g></g><g transform="translate(-46,-46) scale(1,1)"><g><path fill="none" stroke="none"/><text fill="#000000" stroke="none" font-family="Arial" font-size="13px" font-style="normal" font-weight="normal" text-decoration="none" x="405" y="542.5">+tournamentSelection(population: Population): Chromosome[2]</text><path fill="none" stroke="#000000" d="M 405 542.5 L 768.85400390625 542.5" stroke-miterlimit="10"/></g></g><g transform="translate(-46,-46) scale(1,1)"><g><path fill="none" stroke="none"/><text fill="#000000" stroke="none" font-family="Arial" font-size="13px" font-style="normal" font-weight="normal" text-decoration="none" x="405" y="557.5">+setCrossoverRate(crossoverRate: float): void</text><path fill="none" stroke="#000000" d="M 405 557.5 L 671.96337890625 557.5" stroke-miterlimit="10"/></g></g><g transform="translate(-46,-46) scale(1,1)"><g><path fill="none" stroke="none"/><text fill="#000000" stroke="none" font-family="Arial" font-size="13px" font-style="normal" font-weight="normal" text-decoration="none" x="405" y="572.5">+getCrossoverRate(): float</text><path fill="none" stroke="#000000" d="M 405 572.5 L 557.8134765625 572.5" stroke-miterlimit="10"/></g></g><g transform="translate(-46,-46) scale(1,1)"><g><path fill="none" stroke="none"/><text fill="#000000" stroke="none" font-family="Arial" font-size="13px" font-style="normal" font-weight="normal" text-decoration="none" x="405" y="587.5">+setMutationRate(mutationRate: float): float</text><path fill="none" stroke="#000000" d="M 405 587.5 L 656.82421875 587.5" stroke-miterlimit="10"/></g></g><g transform="translate(-46,-46) scale(1,1)"><g><path fill="none" stroke="none"/><text fill="#000000" stroke="none" font-family="Arial" font-size="13px" font-style="normal" font-weight="normal" text-decoration="none" x="405" y="602.5">+getMutationRate(): float</text><path fill="none" stroke="#000000" d="M 405 602.5 L 548.43798828125 602.5" stroke-miterlimit="10"/></g></g><g transform="translate(-46,-46) scale(1,1)"><g><path fill="none" stroke="none"/><text fill="#000000" stroke="none" font-family="Arial" font-size="13px" font-style="normal" font-weight="normal" text-decoration="none" x="405" y="617.5">+returnChromosomes(basisChromosomes: Chromosome[1..*]): Chromosome[1..*]</text><path fill="none" stroke="#000000" d="M 405 617.5 L 878.57958984375 617.5" stroke-miterlimit="10"/></g></g><g transform="translate(-46,-46) scale(1,1)"><path fill="none" stroke="#000000" d="M 486 167 L 695 167" stroke-miterlimit="10"/></g><g transform="translate(-46,-46) scale(1,1)"><g><path fill="none" stroke="none"/><text fill="#000000" stroke="none" font-family="Arial" font-size="13px" font-style="normal" font-weight="normal" text-decoration="none" x="503.5" y="185.5">1</text></g></g><g transform="translate(-46,-46) scale(1,1)"><g><path fill="none" stroke="none"/><text fill="#000000" stroke="none" font-family="Arial" font-size="13px" font-style="normal" font-weight="normal" text-decoration="none" x="663.5" y="185.5">1..*</text></g></g><g transform="translate(-46,-46) scale(1,1)"><path fill="none" stroke="#000000" d="M 400 474 L 296 474 L 296 276" stroke-miterlimit="10"/></g><g transform="translate(-46,-46) scale(1,1)"><g><path fill="none" stroke="none"/><text fill="#000000" stroke="none" font-family="Arial" font-size="13px" font-style="normal" font-weight="normal" text-decoration="none" x="374.5" y="467.5">1</text></g></g><g transform="translate(-46,-46) scale(1,1)"><g><path fill="none" stroke="none"/><text fill="#000000" stroke="none" font-family="Arial" font-size="13px" font-style="normal" font-weight="normal" text-decoration="none" x="298.5" y="303.5">1..*</text></g></g><g transform="translate(-46,-46) scale(1,1)"><path fill="none" stroke="#000000" d="M 904 432 L 904 248" stroke-miterlimit="10"/></g><g transform="translate(-46,-46) scale(1,1)"><g><path fill="none" stroke="none"/><text fill="#000000" stroke="none" font-family="Arial" font-size="13px" font-style="normal" font-weight="normal" text-decoration="none" x="912.5" y="416.5">1</text></g></g><g transform="translate(-46,-46) scale(1,1)"><g><path fill="none" stroke="none"/><text fill="#000000" stroke="none" font-family="Arial" font-size="13px" font-style="normal" font-weight="normal" text-decoration="none" x="906.5" y="275.5">1..*</text></g></g></g></svg>