<svg version="1.1" xmlns="http://www.w3.org/2000/svg" xmlns:xlink="http://www.w3.org/1999/xlink" width="605.24267578125" height="357"><defs/><g><g transform="translate(-62,-30) scale(1,1)"><path fill="#C0C0C0" stroke="none" d="M 361 103 L 433.78271484375 103 Q 443.78271484375 103 443.78271484375 113 L 443.78271484375 133 Q 443.78271484375 143 433.78271484375 143 L 361 143 Q 351 143 351 133 L 351 113 Q 351 103 361 103 Z" opacity="0.2"/></g><g transform="translate(-62,-30) scale(1,1)"><path fill="#ffffff" stroke="none" d="M 354 96 L 426.78271484375 96 Q 436.78271484375 96 436.78271484375 106 L 436.78271484375 126 Q 436.78271484375 136 426.78271484375 136 L 354 136 Q 344 136 344 126 L 344 106 Q 344 96 354 96 Z"/></g><g transform="translate(-62,-30) scale(1,1)"><path fill="none" stroke="#000000" d="M 354 96 L 426.78271484375 96 Q 436.78271484375 96 436.78271484375 106 L 436.78271484375 126 Q 436.78271484375 136 426.78271484375 136 L 354 136 Q 344 136 344 126 L 344 106 Q 344 96 354 96 Z" stroke-miterlimit="10"/></g><g transform="translate(-62,-30) scale(1,1)"><g><path fill="none" stroke="none"/><text fill="#000000" stroke="none" font-family="Arial" font-size="13px" font-style="normal" font-weight="bold" text-decoration="none" x="351.73095703125" y="115.5">Add numbers</text></g></g><g transform="translate(-62,-30) scale(1,1)"><path fill="#C0C0C0" stroke="none" d="M 391 56.5 C 391 51.2532944 395.2532944 47 400.5 47 C 405.7467056 47 410 51.2532944 410 56.5 C 410 61.7467056 405.7467056 66 400.5 66 C 395.2532944 66 391 61.7467056 391 56.5 Z" opacity="0.2"/></g><g transform="translate(-62,-30) scale(1,1)"><path fill="#000000" stroke="none" d="M 384 49.5 C 384 44.2532944 388.2532944 40 393.5 40 C 398.7467056 40 403 44.2532944 403 49.5 C 403 54.7467056 398.7467056 59 393.5 59 C 388.2532944 59 384 54.7467056 384 49.5 Z"/></g><g transform="translate(-62,-30) scale(1,1)"><path fill="none" stroke="#000000" d="M 393 60 L 391 95" stroke-miterlimit="10"/></g><g transform="translate(-62,-30) scale(1,1)"><path fill="none" stroke="#000000" d="M 387.37711661258334 84.61372463482792 L 391 95 L 395.78244033129357 85.09402884732563" stroke-miterlimit="10"/></g><g transform="translate(-62,-30) scale(1,1)"><path fill="#C0C0C0" stroke="none" d="M 345 199 L 456.0908203125 199 Q 466.0908203125 199 466.0908203125 209 L 466.0908203125 229 Q 466.0908203125 239 456.0908203125 239 L 345 239 Q 335 239 335 229 L 335 209 Q 335 199 345 199 Z" opacity="0.2"/></g><g transform="translate(-62,-30) scale(1,1)"><path fill="#ffffff" stroke="none" d="M 338 192 L 449.0908203125 192 Q 459.0908203125 192 459.0908203125 202 L 459.0908203125 222 Q 459.0908203125 232 449.0908203125 232 L 338 232 Q 328 232 328 222 L 328 202 Q 328 192 338 192 Z"/></g><g transform="translate(-62,-30) scale(1,1)"><path fill="none" stroke="#000000" d="M 338 192 L 449.0908203125 192 Q 459.0908203125 192 459.0908203125 202 L 459.0908203125 222 Q 459.0908203125 232 449.0908203125 232 L 338 232 Q 328 232 328 222 L 328 202 Q 328 192 338 192 Z" stroke-miterlimit="10"/></g><g transform="translate(-62,-30) scale(1,1)"><g><path fill="none" stroke="none"/><text fill="#000000" stroke="none" font-family="Arial" font-size="13px" font-style="normal" font-weight="bold" text-decoration="none" x="336.45458984375" y="211.5">Solve sudoku game</text></g></g><g transform="translate(-62,-30) scale(1,1)"><path fill="none" stroke="#000000" d="M 391 137 L 392 191" stroke-miterlimit="10"/></g><g transform="translate(-62,-30) scale(1,1)"><path fill="none" stroke="#000000" d="M 387.6030384339769 180.91700793479853 L 392 191 L 396.02063072400256 180.76112659609436" stroke-miterlimit="10"/></g><g transform="translate(-62,-30) scale(1,1)"><path fill="#C0C0C0" stroke="none" d="M 391 304.5 L 402.5 295 L 413 304.5 L 402.5 313 L 391 304.5" opacity="0.2"/></g><g transform="translate(-62,-30) scale(1,1)"><path fill="#ffffff" stroke="none" d="M 384 297 L 395 288 L 406 297 L 395 306 L 384 297"/></g><g transform="translate(-62,-30) scale(1,1)"><path fill="none" stroke="#000000" d="M 384 297 L 395 288 L 406 297 L 395 306 L 384 297 L 384 297" stroke-miterlimit="10"/></g><g transform="translate(-62,-30) scale(1,1)"><path fill="none" stroke="#000000" d="M 393 233 L 395 287" stroke-miterlimit="10"/></g><g transform="translate(-62,-30) scale(1,1)"><path fill="none" stroke="#000000" d="M 390.41722899170594 277.0000895061236 L 395 287 L 398.8304960648887 276.6884870219316" stroke-miterlimit="10"/></g><g transform="translate(-62,-30) scale(1,1)"><path fill="#C0C0C0" stroke="none" d="M 593 207 L 654.24267578125 207 Q 664.24267578125 207 664.24267578125 217 L 664.24267578125 237 Q 664.24267578125 247 654.24267578125 247 L 593 247 Q 583 247 583 237 L 583 217 Q 583 207 593 207 Z" opacity="0.2"/></g><g transform="translate(-62,-30) scale(1,1)"><path fill="#ffffff" stroke="none" d="M 586 200 L 647.24267578125 200 Q 657.24267578125 200 657.24267578125 210 L 657.24267578125 230 Q 657.24267578125 240 647.24267578125 240 L 586 240 Q 576 240 576 230 L 576 210 Q 576 200 586 200 Z"/></g><g transform="translate(-62,-30) scale(1,1)"><path fill="none" stroke="#000000" d="M 586 200 L 647.24267578125 200 Q 657.24267578125 200 657.24267578125 210 L 657.24267578125 230 Q 657.24267578125 240 647.24267578125 240 L 586 240 Q 576 240 576 230 L 576 210 Q 576 200 586 200 Z" stroke-miterlimit="10"/></g><g transform="translate(-62,-30) scale(1,1)"><g><path fill="none" stroke="none"/><text fill="#000000" stroke="none" font-family="Arial" font-size="13px" font-style="normal" font-weight="bold" text-decoration="none" x="582.658203125" y="219.5">Clear board</text></g></g><g transform="translate(-62,-30) scale(1,1)"><path fill="none" stroke="#000000" d="M 406 293 L 616 293 L 616 240" stroke-miterlimit="10"/></g><g transform="translate(-62,-30) scale(1,1)"><path fill="none" stroke="#000000" d="M 620.209517756016 250.16267485762415 L 616 240 L 611.790482243984 250.16267485762415" stroke-miterlimit="10"/></g><g transform="translate(-62,-30) scale(1,1)"><g><path fill="none" stroke="none"/><text fill="#000000" stroke="none" font-family="Arial" font-size="13px" font-style="normal" font-weight="normal" text-decoration="none" x="455.5" y="316.5">[Solve another game]</text></g></g><g transform="translate(-62,-30) scale(1,1)"><path fill="none" stroke="#000000" d="M 616 200 L 616 112 L 437 112" stroke-miterlimit="10"/></g><g transform="translate(-62,-30) scale(1,1)"><path fill="none" stroke="#000000" d="M 447.16267485762415 107.79048224398402 L 437 112 L 447.16267485762415 116.20951775601598" stroke-miterlimit="10"/></g><g transform="translate(-62,-30) scale(1,1)"><path fill="#C0C0C0" stroke="none" d="M 391 371.5 C 391 364.59644 396.59644 359 403.5 359 C 410.40356 359 416 364.59644 416 371.5 C 416 378.40356 410.40356 384 403.5 384 C 396.59644 384 391 378.40356 391 371.5 Z" opacity="0.2"/></g><g transform="translate(-62,-30) scale(1,1)"><path fill="none" stroke="#000000" d="M 384 364.5 C 384 357.59644 389.59644 352 396.5 352 C 403.40356 352 409 357.59644 409 364.5 C 409 371.40356 403.40356 377 396.5 377 C 389.59644 377 384 371.40356 384 364.5 Z" stroke-miterlimit="10"/></g><g transform="translate(-62,-30) scale(1,1)"><path fill="#000000" stroke="none" d="M 389 364.5 C 389 360.357864 392.357864 357 396.5 357 C 400.642136 357 404 360.357864 404 364.5 C 404 368.642136 400.642136 372 396.5 372 C 392.357864 372 389 368.642136 389 364.5 Z"/></g><g transform="translate(-62,-30) scale(1,1)"><path fill="none" stroke="#000000" d="M 395 307 L 396 351" stroke-miterlimit="10"/></g><g transform="translate(-62,-30) scale(1,1)"><path fill="none" stroke="#000000" d="M 391.56065873692773 340.93559494306874 L 396 351 L 399.9775207532446 340.7443026245161" stroke-miterlimit="10"/></g><g transform="translate(-62,-30) scale(1,1)"><g><path fill="none" stroke="none"/><text fill="#000000" stroke="none" font-family="Arial" font-size="13px" font-style="normal" font-weight="normal" text-decoration="none" x="226.5" y="344.5">[Don't solve another game]</text></g></g><g transform="translate(-62,-30) scale(1,1)"><path fill="#ffffff" stroke="none" d="M 72 88 L 229 88 L 239 98 L 239 137 L 72 137 L 72 88"/></g><g transform="translate(-62,-30) scale(1,1)"><path fill="none" stroke="#000000" d="M 72 88 L 229 88 L 239 98 L 239 137 L 72 137 L 72 88 L 72 88" stroke-miterlimit="10"/></g><g transform="translate(-62,-30) scale(1,1)"><path fill="none" stroke="#000000" d="M 229 88 L 229 98 L 239 98 L 229 88" stroke-miterlimit="10"/></g><g transform="translate(-62,-30) scale(1,1)"><g><path fill="none" stroke="none"/><text fill="#000000" stroke="none" font-family="Arial" font-size="13px" font-style="normal" font-weight="normal" text-decoration="none" x="77" y="106">Can't leave board empty.</text><text fill="#000000" stroke="none" font-family="Arial" font-size="13px" font-style="normal" font-weight="normal" text-decoration="none" x="77" y="119">Only allow numbers from 1</text><text fill="#000000" stroke="none" font-family="Arial" font-size="13px" font-style="normal" font-weight="normal" text-decoration="none" x="77" y="132">to 9.</text></g></g><g transform="translate(-62,-30) scale(1,1)"><path fill="none" stroke="#000000" d="M 241 114 L 343 115" stroke-miterlimit="10" stroke-dasharray="3"/></g></g></svg>