<svg version="1.1" xmlns="http://www.w3.org/2000/svg" xmlns:xlink="http://www.w3.org/1999/xlink" width="339" height="315"><defs/><g><g transform="translate(-126,-46) scale(1,1)"><rect fill="#ffffff" stroke="none" x="240" y="56" width="215" height="295"/></g><g transform="translate(-126,-46) scale(1,1)"><path fill="none" stroke="#000000" d="M 240 56 L 455 56 L 455 351 L 240 351 L 240 56 Z Z" stroke-miterlimit="10"/></g><g transform="translate(-126,-46) scale(1,1)"><path fill="#ffffff" stroke="none" d="M 152.40935031960228 169.68 C 152.40935031960228 164.886167936 156.29519264454774 161 161.088623046875 161 C 165.88205344920226 161 169.76789577414772 164.886167936 169.76789577414772 169.68 C 169.76789577414772 174.47383206400002 165.88205344920226 178.36 161.088623046875 178.36 C 156.29519264454774 178.36 152.40935031960228 174.47383206400002 152.40935031960228 169.68 Z"/></g><g transform="translate(-126,-46) scale(1,1)"><path fill="none" stroke="#000000" d="M 152.40935031960228 169.68 C 152.40935031960228 164.886167936 156.29519264454774 161 161.088623046875 161 C 165.88205344920226 161 169.76789577414772 164.886167936 169.76789577414772 169.68 C 169.76789577414772 174.47383206400002 165.88205344920226 178.36 161.088623046875 178.36 C 156.29519264454774 178.36 152.40935031960228 174.47383206400002 152.40935031960228 169.68 Z" stroke-miterlimit="10"/></g><g transform="translate(-126,-46) scale(1,1)"><path fill="none" stroke="#000000" d="M 161.088623046875 178.36 L 161.088623046875 195.64" stroke-miterlimit="10"/></g><g transform="translate(-126,-46) scale(1,1)"><path fill="none" stroke="#000000" d="M 151.89880486505683 184.84 L 170.27844122869317 184.84" stroke-miterlimit="10"/></g><g transform="translate(-126,-46) scale(1,1)"><path fill="none" stroke="#000000" d="M 161.088623046875 195.64 L 148.32498668323865 213" stroke-miterlimit="10"/></g><g transform="translate(-126,-46) scale(1,1)"><path fill="none" stroke="#000000" d="M 161.088623046875 195.64 L 173.85225941051135 213" stroke-miterlimit="10"/></g><g transform="translate(-126,-46) scale(1,1)"><g><path fill="none" stroke="none"/><text fill="#000000" stroke="none" font-family="Arial" font-size="13px" font-style="normal" font-weight="bold" text-decoration="none" x="147.364990234375" y="233.5">User</text></g></g><g transform="translate(-126,-46) scale(1,1)"><path fill="#C0C0C0" stroke="none" d="M 287 136 C 287 126.6111584 316.3253456 119 352.5 119 C 388.6746544 119 418 126.6111584 418 136 C 418 145.3888416 388.6746544 153 352.5 153 C 316.3253456 153 287 145.3888416 287 136 Z" opacity="0.2"/></g><g transform="translate(-126,-46) scale(1,1)"><path fill="#ffffff" stroke="none" d="M 280 129 C 280 119.6111584 309.3253456 112 345.5 112 C 381.6746544 112 411 119.6111584 411 129 C 411 138.3888416 381.6746544 146 345.5 146 C 309.3253456 146 280 138.3888416 280 129 Z"/></g><g transform="translate(-126,-46) scale(1,1)"><path fill="none" stroke="#000000" d="M 280 129 C 280 119.6111584 309.3253456 112 345.5 112 C 381.6746544 112 411 119.6111584 411 129 C 411 138.3888416 381.6746544 146 345.5 146 C 309.3253456 146 280 138.3888416 280 129 Z" stroke-miterlimit="10"/></g><g transform="translate(-126,-46) scale(1,1)"><g><path fill="none" stroke="none"/><text fill="#000000" stroke="none" font-family="Arial" font-size="13px" font-style="normal" font-weight="bold" text-decoration="none" x="306.839599609375" y="136">Add numbers</text></g></g><g transform="translate(-126,-46) scale(1,1)"><path fill="none" stroke="#000000" d="M 187 189 L 298 147" stroke-miterlimit="10"/></g><g transform="translate(-126,-46) scale(1,1)"><path fill="#C0C0C0" stroke="none" d="M 271 216 C 271 206.6111584 308.8319344 199 355.5 199 C 402.1680656 199 440 206.6111584 440 216 C 440 225.3888416 402.1680656 233 355.5 233 C 308.8319344 233 271 225.3888416 271 216 Z" opacity="0.2"/></g><g transform="translate(-126,-46) scale(1,1)"><path fill="#ffffff" stroke="none" d="M 264 209 C 264 199.6111584 301.8319344 192 348.5 192 C 395.1680656 192 433 199.6111584 433 209 C 433 218.3888416 395.1680656 226 348.5 226 C 301.8319344 226 264 218.3888416 264 209 Z"/></g><g transform="translate(-126,-46) scale(1,1)"><path fill="none" stroke="#000000" d="M 264 209 C 264 199.6111584 301.8319344 192 348.5 192 C 395.1680656 192 433 199.6111584 433 209 C 433 218.3888416 395.1680656 226 348.5 226 C 301.8319344 226 264 218.3888416 264 209 Z" stroke-miterlimit="10"/></g><g transform="translate(-126,-46) scale(1,1)"><g><path fill="none" stroke="none"/><text fill="#000000" stroke="none" font-family="Arial" font-size="13px" font-style="normal" font-weight="bold" text-decoration="none" x="297.188720703125" y="216">Generate solution</text></g></g><g transform="translate(-126,-46) scale(1,1)"><path fill="none" stroke="#000000" d="M 187 200 L 263 204" stroke-miterlimit="10"/></g><g transform="translate(-126,-46) scale(1,1)"><path fill="#C0C0C0" stroke="none" d="M 303 288 C 303 278.6111584 328.743624 271 360.5 271 C 392.256376 271 418 278.6111584 418 288 C 418 297.3888416 392.256376 305 360.5 305 C 328.743624 305 303 297.3888416 303 288 Z" opacity="0.2"/></g><g transform="translate(-126,-46) scale(1,1)"><path fill="#ffffff" stroke="none" d="M 296 281 C 296 271.6111584 321.743624 264 353.5 264 C 385.256376 264 411 271.6111584 411 281 C 411 290.3888416 385.256376 298 353.5 298 C 321.743624 298 296 290.3888416 296 281 Z"/></g><g transform="translate(-126,-46) scale(1,1)"><path fill="none" stroke="#000000" d="M 296 281 C 296 271.6111584 321.743624 264 353.5 264 C 385.256376 264 411 271.6111584 411 281 C 411 290.3888416 385.256376 298 353.5 298 C 321.743624 298 296 290.3888416 296 281 Z" stroke-miterlimit="10"/></g><g transform="translate(-126,-46) scale(1,1)"><g><path fill="none" stroke="none"/><text fill="#000000" stroke="none" font-family="Arial" font-size="13px" font-style="normal" font-weight="bold" text-decoration="none" x="319.536865234375" y="288">Clear board</text></g></g><g transform="translate(-126,-46) scale(1,1)"><path fill="none" stroke="#000000" d="M 187 210 L 311 263" stroke-miterlimit="10"/></g></g></svg>